<?xml version="1.0" encoding="utf-8"?>
<!-- Svg Vector Icons : http://www.onlinewebfonts.com/icon -->
<!DOCTYPE svg PUBLIC "-//W3C//DTD SVG 1.1//EN" "http://www.w3.org/Graphics/SVG/1.1/DTD/svg11.dtd">
<svg version="1.1" xmlns="http://www.w3.org/2000/svg" xmlns:xlink="http://www.w3.org/1999/xlink" x="0px" y="0px" viewBox="0 0 1000 1000" enable-background="new 0 0 1000 1000" xml:space="preserve">
<metadata> Svg Vector Icons : http://www.onlinewebfonts.com/icon </metadata>
<g><g transform="translate(0.000000,511.000000) scale(0.100000,-0.100000)"><path d="M4846.8,4997.4c-255.4-65.4-451.6-282-490.4-537.4l-14.3-91.9l-349.4-12.3c-376-14.3-576.2-47-852-147.1c-854.1-308.5-1452.8-988.9-1681.6-1910.4c-42.9-171.6-42.9-208.4-49-2650.1l-8.2-2474.4l-222.7-8.2c-185.9-4.1-230.9-12.2-277.9-49c-108.3-79.7-141-145.1-141-273.8c0-128.7,32.7-194.1,141-273.8l55.2-42.9H5000h4043.6l55.1,42.9c108.3,79.7,141,145.1,141,273.8c0,128.7-32.7,194.1-141,273.8c-47,36.8-91.9,44.9-277.9,49l-222.7,8.2L8590-351.8c-6.1,2441.7-6.1,2478.5-49,2650.1c-257.5,1033.9-995.1,1771.5-2008.5,2004.4c-116.5,26.6-288.1,45-523.1,53.1l-351.4,12.3l-12.3,87.9c-26.6,204.3-177.8,406.6-369.8,496.5C5165.5,5003.6,4957.1,5026,4846.8,4997.4z M6452.7,3653c725.4-204.3,1228-707,1434.4-1434.4c45-155.3,45-161.4,51.1-2601.1l6.1-2447.8H5000H2057.7v2368.1c0,2597-2,2541.8,122.6,2889.1c185.9,512.9,645.7,972.6,1160.6,1158.5c324.9,118.5,365.8,120.5,1720.4,116.5C6256.6,3695.9,6303.6,3695.9,6452.7,3653z"/><path d="M4143.9-4264.6c198.2-392.3,666.1-606.8,1091.1-496.5c259.5,69.5,502.6,261.5,621.2,496.5l63.3,126.7H5000h-919.5L4143.9-4264.6z"/></g></g>
</svg>