<?xml version="1.0" encoding="utf-8"?>
<!-- Svg Vector Icons : http://www.onlinewebfonts.com/icon -->
<!DOCTYPE svg PUBLIC "-//W3C//DTD SVG 1.1//EN" "http://www.w3.org/Graphics/SVG/1.1/DTD/svg11.dtd">
<svg version="1.1" xmlns="http://www.w3.org/2000/svg" xmlns:xlink="http://www.w3.org/1999/xlink" x="0px" y="0px" viewBox="0 0 1000 1000" enable-background="new 0 0 1000 1000" xml:space="preserve">
<metadata> Svg Vector Icons : http://www.onlinewebfonts.com/icon </metadata>
<g><path d="M958.2,943.8c10.7,10.7,10.7,27.9,0,38.5c-9.2,9.3-23.2,10-33.8,3.2l-0.2,0.2l-1.3-1.3c-1-0.8-2.3-1.2-3.2-2.2c-0.9-0.9-1.4-2.2-2.1-3.2L710.4,772c-165.8,124.3-401.8,111.5-552.6-39.3C-7.5,567.4-7.5,299.3,157.8,134c165.3-165.3,433.4-165.3,598.7,0c165.3,165.3,165.3,433.4,0,598.7c-1.9,1.9-4,3.5-6,5.5l201.7,201.7C954.3,940.9,956.4,942,958.2,943.8z M726.7,164.1c-148.5-148.4-389.1-148.4-537.6,0c-148.4,148.4-148.4,389.1,0,537.5c148.4,148.4,389.1,148.4,537.6,0C875.1,553.2,875.1,312.5,726.7,164.1z"/></g>
</svg>